Coordinates
version=1
nRows=5
nColumns=42
inDegrees=yes

Units are S.I. units (second, meters, Newtons, ...)
If the header above contains a line with 'inDegrees', this indicates whether rotational values are in degrees (yes) or radians (no).

endheader
time	pelvis_tilt	pelvis_list	pelvis_rotation	pelvis_tx	pelvis_ty	pelvis_tz	hip_flexion_r	hip_adduction_r	hip_rotation_r	knee_angle_r	knee_angle_r_beta	ankle_angle_r	subtalar_angle_r	mtp_angle_r	hip_flexion_l	hip_adduction_l	hip_rotation_l	knee_angle_l	knee_angle_l_beta	ankle_angle_l	subtalar_angle_l	mtp_angle_l	lumbar_extension	lumbar_bending	lumbar_rotation	sh_tx_r	sh_ty_r	sh_tz_r	sh_plane_elev_r	sh_elev_r	sh_axial_rot_r	elbow_flex_r	pro_sup_r	sh_tx_l	sh_ty_l	sh_tz_l	sh_plane_elev_l	sh_elev_l	sh_axial_rot_l	elbow_flex_l	pro_sup_l
      0.00000000	     -5.66199675	     -0.83909687	     -0.20711940	      0.26735988	      0.93595982	     -0.06391850	      3.78209008	     -6.19115018	     -1.47327474	      3.33040587	      0.05812655	     -1.30416473	    -10.17597224	     -5.69043033	      4.29391608	     -4.92126987	     -4.54356814	      7.84511606	      0.13692311	     14.71163550	     -3.31201580	     -5.69043033	      0.79141419	      0.24917655	     -1.65397771	      0.00420818	     -0.01754750	     -0.00555447	      9.74285051	      6.10119210	     -0.10993898	     25.60785468	     76.97203696	      0.00341622	     -0.01712196	     -0.00511054	      6.92185996	      6.62001366	     -2.59606874	     23.35511866	     71.47598805
      0.01666670	     -7.81687823	     -0.60552464	     -0.56862532	      0.26943766	      0.93102720	     -0.06372536	      5.93969991	     -6.48018831	     -1.07033861	      3.30252462	      0.05763993	      2.08293553	     -5.53805503	     -6.51914177	      6.60618222	     -4.49174823	     -5.40199808	      7.13146899	      0.12446761	     14.48921823	     -2.23786080	     -6.51914177	      4.12901237	      0.18627893	     -2.14867874	      0.00339163	     -0.01678574	     -0.00567429	      1.49198230	      4.68581703	      1.37292847	     25.70321858	     80.04170831	      0.00105212	     -0.01636737	     -0.00518250	     -6.29917400	      4.56646062	     -1.62337258	     24.23837400	     77.06525508
      0.03333330	     -8.12432525	      0.19104855	     -0.95956251	      0.26956929	      0.93039954	     -0.06284771	      6.00754627	     -7.57320426	     -1.34903800	      2.51838010	      0.04395402	      2.90866318	     -3.98399724	     -6.84108055	      6.37841330	     -3.76334422	     -6.66045864	      6.18063823	      0.10787249	     13.90431258	     -1.52085572	     -6.84108055	      4.45000072	     -0.78446422	     -2.02837939	      0.00203282	     -0.01653211	     -0.00545473	      0.30619184	      4.20316461	      0.85012421	     26.09189430	     79.07082195	     -0.00082736	     -0.01617858	     -0.00497721	     -7.18240256	      4.84000737	     -1.64613714	     24.46555466	     77.69112645
      0.05000000	     -7.81603405	      0.70675557	     -1.11452276	      0.26961341	      0.93109928	     -0.06238518	      5.49966351	     -8.23379134	     -1.22997322	      2.00281821	      0.03495577	      3.68964223	     -3.08875375	     -6.87886850	      5.24025416	     -3.14197861	     -6.99512260	      4.86992854	      0.08499629	     13.11667526	     -1.48456195	     -6.87886850	      4.17965827	     -1.45776283	     -2.15446300	      0.00266109	     -0.01687657	     -0.00531676	      0.90015675	      4.07828561	      0.88082915	     26.22978757	     78.18477987	     -0.00295587	     -0.01638335	     -0.00476975	     -6.33533069	      5.33881118	     -1.83495875	     24.34487624	     76.83988741
      0.06666670	     -7.53390747	      0.91266967	     -1.26570741	      0.26944917	      0.93193684	     -0.06217650	      5.06925458	     -8.47958072	     -1.24198091	      1.59890035	      0.02790608	      4.30709189	     -2.58797081	     -7.03996170	      4.38075905	     -2.89200307	     -7.33311332	      3.97666882	      0.06940596	     12.64587716	     -1.54669080	     -7.03996170	      4.00745149	     -1.69299738	     -1.97358063	      0.00329772	     -0.01702134	     -0.00515270	      2.61653602	      4.16322484	      1.01014924	     26.15935492	     75.56580745	     -0.00269110	     -0.01651054	     -0.00455466	     -4.72250712	      5.59768769	     -2.15851508	     24.18322781	     74.31070597
